<svg id="Capa_1" data-name="Capa 1" xmlns="http://www.w3.org/2000/svg" viewBox="0 0 276.16 230.97"><defs><style>.cls-1{fill:#fff;}</style></defs><title>open-archive</title><path class="cls-1" d="M273.08,101.38c-3.3-4.65-8.86-7.32-15.25-7.32H233.49V67.59A18.52,18.52,0,0,0,215,49.09H129.66c-3.63,0-9.29-2.88-11.43-5.81l-6.39-8.73c-5-6.82-15.1-12-23.54-12H58.73A24,24,0,0,0,37,38l-2,5.75a9.31,9.31,0,0,1-7.6,5.37H18.5A18.52,18.52,0,0,0,0,67.59V234.66a7.54,7.54,0,0,0,.44,2.52,16.82,16.82,0,0,0,3.06,9.06c3.3,4.65,8.86,7.32,15.25,7.32H207.24c11.39,0,23.27-8.42,27-19.18L275,118.19C277.06,112.16,276.38,106,273.08,101.38ZM18.5,64.09h8.86A24,24,0,0,0,49.1,48.72l2-5.75a9.34,9.34,0,0,1,7.6-5.38H88.29c3.63,0,9.3,2.88,11.44,5.81l6.39,8.73c5,6.82,15.1,12,23.54,12H215a3.55,3.55,0,0,1,3.5,3.5V94.06H69.34c-11.4,0-23.27,8.42-27,19.18l-27.3,78V67.59A3.54,3.54,0,0,1,18.5,64.09Zm242.29,49.15L220.11,229.43c-1.67,4.78-7.81,9.13-12.87,9.13H18.75a3.75,3.75,0,0,1-3-1,3.78,3.78,0,0,1,.06-3.18L56.46,118.19c1.68-4.78,7.82-9.13,12.88-9.13H257.83a3.78,3.78,0,0,1,3,1A3.78,3.78,0,0,1,260.79,113.24Z" transform="translate(0 -22.59)"/></svg>